<?xml version="1.0" encoding="utf-8"?>
<svg version="1.1" id="Layer_1" xmlns="http://www.w3.org/2000/svg" xmlns:xlink="http://www.w3.org/1999/xlink" x="0px" y="0px"
	 viewBox="0 0 800 800" style="enable-background:new 0 0 800 800;" xml:space="preserve">
<style type="text/css">
	.st0{fill:none;stroke:#FFFFFF;stroke-width:20;stroke-miterlimit:10;}
</style>
<g>
	<path class="st0" d="M709.3,213.3l-318,318c-31.7,31.7-125.7,46.3-146.7,25.3c-21-21-6.7-115,25-146.7L588,91.7
		c7.9-8.6,17.4-15.4,27.9-20.2c10.6-4.8,22-7.4,33.6-7.6c11.6-0.2,23.2,1.9,33.9,6.2c10.8,4.3,20.6,10.8,28.8,19
		c8.2,8.2,14.7,18,19,28.8c4.3,10.8,6.4,22.3,6.1,34c-0.3,11.6-2.9,23.1-7.7,33.6C724.8,196,717.9,205.5,709.3,213.3L709.3,213.3z"
		/>
	<path class="st0" d="M366.7,133.3H200c-35.4,0-69.3,14-94.3,39.1c-25,25-39.1,58.9-39.1,94.3V600c0,35.4,14,69.3,39.1,94.3
		c25,25,58.9,39.1,94.3,39.1h366.7c73.7,0,100-60,100-133.3V433.3"/>
</g>
</svg>