<svg id="Layer_1" data-name="Layer 1" xmlns="http://www.w3.org/2000/svg" viewBox="0 0 122.73 122.88"><defs><style>.cls-1{fill:#fff;fill-rule:evenodd;}</style></defs><path class="cls-1" d="M109.5,113.68h-6.09a.73.73,0,0,1-.73-.72V69.38a4.53,4.53,0,0,0-.49-2.22c-.06-.11-.14-.22-.2-.31s-.16-.18-.23-.27l0,0a3,3,0,0,0-1.12-.69l-.25-.07h-.05a5.38,5.38,0,0,0-1.38-.17H36.75a4.37,4.37,0,0,0-2.18.49h0l-.27.17,0,0-.27.23,0,0h0A3.86,3.86,0,0,0,33,69.41V113h0a.73.73,0,0,1-.73.72H22.44a.74.74,0,0,1-.51-.21L9.87,101.41a.75.75,0,0,1-.29-.59v-88A4.41,4.41,0,0,1,10,10.76h0a2,2,0,0,1,.17-.29l0,0c.07-.11.19-.18.25-.29v0l0,0h0a2.74,2.74,0,0,1,.92-.59l0,0h0l.18-.06h0a4.85,4.85,0,0,1,1.44-.21h26.3a.73.73,0,0,1,.73.72V38.66a9,9,0,0,0,.13,1.5,3.8,3.8,0,0,0,.39,1.34v0h0a7.46,7.46,0,0,0,.67,1.25,8.25,8.25,0,0,0,.9,1.13l0,0h0c.48.5.94,1.15,1.62,1.27h0l.32.17h0l.4.18h0a6.56,6.56,0,0,0,1,.34h.08L46,46h0a7.27,7.27,0,0,0,1.42.14H95.24a7.57,7.57,0,0,0,2.85-.53h0A7.47,7.47,0,0,0,100.49,44l0,0a7.49,7.49,0,0,0,1-1.16,3.3,3.3,0,0,0,.66-1.22h0v0a5.76,5.76,0,0,0,.41-1.34v0a8,8,0,0,0,.13-1.49V9.92a.73.73,0,0,1,.73-.73h6A5.17,5.17,0,0,1,111,9.4a2.91,2.91,0,0,1,1.2.7,3.68,3.68,0,0,1,.9,2.59V110a5,5,0,0,1-.21,1.51v0h0v0l-.08.22h0l0,.06-.09.2v0l0,0h0l0,.06-.15.22h0l0,.08-.14.17-.06.07a2.45,2.45,0,0,1-.53.42,3.47,3.47,0,0,1-.55.26l-.06,0c-.16.05-.34.1-.53.14h-.18c-.22,0-.49,0-.76.06h-.1Zm-55.57-9.25a3,3,0,0,1,0-6H85.05a3,3,0,1,1,0,6Zm0-15.4a3,3,0,0,1,0-6H85.05a3,3,0,0,1,0,6ZM94,9.39l-45.32-.2V35.05h0a3.9,3.9,0,0,0,.17,1.2c0,.06,0,.1.07.15a1.66,1.66,0,0,0,.4.61l0,0h0l.17.15.2.14a3.11,3.11,0,0,0,1.58.34h0l40.1.25h0a2.67,2.67,0,0,0,2-.63,2.79,2.79,0,0,0,.63-2h0V9.39ZM41.91,73.23H95a.65.65,0,0,1,.65.64V113a.66.66,0,0,1-.65.65H41.91a.65.65,0,0,1-.65-.64V73.88a.66.66,0,0,1,.65-.65ZM9.68,0H113.94a8.71,8.71,0,0,1,8.79,8.79V114a8.78,8.78,0,0,1-8.79,8.88H17.33l-.24-.25-16-16-1-.7V8.76C0,3.28,4.81,0,9.68,0Z"/></svg>